<svg xmlns="http://www.w3.org/2000/svg" width="128" height="128"><svg width="128" height="128" viewBox="0 0 128 128" fill="none" xmlns="http://www.w3.org/2000/svg"><g clip-path="url('#clip0_3310_2')"><rect width="128" height="128" rx="28" fill="#0E0C07"/><path d="M75.996 18.96c4.623 0 8.561 1.661 11.817 4.981 3.32 3.32 4.98 7.26 4.98 11.817V159h-9.57V34.977c0-2.019-.716-3.711-2.149-5.079-1.367-1.367-3.06-2.05-5.078-2.05-2.018 0-3.743.683-5.176 2.05-1.367 1.368-2.05 3.06-2.05 5.079V159H59.2V34.977c0-2.019-.717-3.711-2.15-5.079-1.366-1.367-3.06-2.05-5.077-2.05-2.019 0-3.711.683-5.078 2.05-1.368 1.368-2.051 3.06-2.051 5.079V159h-9.668V35.758c0-4.558 1.627-8.496 4.883-11.817 3.32-3.32 7.291-4.98 11.914-4.98 4.817 0 8.821 1.693 12.011 5.078 3.19-3.385 7.194-5.078 12.012-5.078Z" fill="#F3C653"/><path fill="#0E0C07" d="M30 110h68v18H30z"/></g><rect x=".5" y=".5" width="127" height="127" rx="27.5" stroke="#000" stroke-linejoin="round"/><defs><clipPath id="SvgjsClipPath1000"><rect width="128" height="128" rx="28" fill="#fff"/></clipPath></defs></svg><style>@media (prefers-color-scheme:light){:root{filter:none}}</style></svg>