<svg xmlns="http://www.w3.org/2000/svg" version="1.1" xmlns:xlink="http://www.w3.org/1999/xlink" xmlns:svgjs="http://svgjs.com/svgjs" width="128" height="128"><svg width="128" height="128" viewBox="0 0 128 128" fill="none" xmlns="http://www.w3.org/2000/svg">
<rect x="0.5" y="0.5" width="127" height="127" rx="27.5" fill="#0E0C07"></rect>
<path d="M72.0449 25.9785C75.3392 25.9785 78.1322 27.1423 80.4238 29.4697C82.7513 31.7972 83.915 34.6081 83.915 37.9023V103H75.9658V37.2041C75.9658 36.0941 75.5898 35.1631 74.8379 34.4111C74.0859 33.6592 73.1549 33.2832 72.0449 33.2832C70.9349 33.2832 69.986 33.6592 69.1982 34.4111C68.4463 35.1631 68.0703 36.0941 68.0703 37.2041V103H60.1211V37.2041C60.1211 36.0941 59.7451 35.1631 58.9932 34.4111C58.2412 33.6592 57.3102 33.2832 56.2002 33.2832C55.0902 33.2832 54.1413 33.6592 53.3535 34.4111C52.6016 35.1631 52.2256 36.0941 52.2256 37.2041V103H44.2764V37.9023C44.2764 34.6081 45.4401 31.7972 47.7676 29.4697C50.0951 27.1423 52.9059 25.9785 56.2002 25.9785C59.1364 25.9785 61.7682 27.0169 64.0957 29.0938C66.4232 27.0169 69.0729 25.9785 72.0449 25.9785Z" fill="#F3C653"></path>
<rect x="0.5" y="0.5" width="127" height="127" rx="27.5" stroke="black" stroke-linejoin="round"></rect>
</svg><style>@media (prefers-color-scheme: light) { :root { filter: none; } }
</style></svg>