<!-- Generated by IcoMoon.io -->
<svg version="1.1" xmlns="http://www.w3.org/2000/svg" width="32" height="32" viewBox="0 0 32 32">
<title>phone-desktop-12x20</title>
<path d="M22 0c0.955 0 1.87 0.379 2.546 1.054s1.054 1.591 1.054 2.546v24.8c0 0.955-0.379 1.87-1.054 2.546s-1.591 1.054-2.546 1.054h-12c-0.955 0-1.87-0.379-2.546-1.054s-1.054-1.591-1.054-2.546v-24.8c0-0.955 0.379-1.87 1.054-2.546s1.591-1.054 2.546-1.054h12zM22 2.4h-12c-0.318 0-0.623 0.126-0.849 0.351s-0.351 0.53-0.351 0.849v24.8c0 0.662 0.538 1.2 1.2 1.2h12c0.318 0 0.624-0.126 0.848-0.352s0.352-0.53 0.352-0.848v-24.8c0-0.318-0.126-0.623-0.352-0.849s-0.53-0.351-0.848-0.351zM17.998 24.8c0.318-0 0.624 0.126 0.849 0.35s0.352 0.53 0.353 0.848-0.126 0.624-0.35 0.849c-0.225 0.225-0.53 0.352-0.848 0.353l-4 0.006c-0.318 0-0.624-0.126-0.849-0.35s-0.352-0.53-0.353-0.848 0.126-0.624 0.35-0.849c0.225-0.225 0.53-0.352 0.848-0.353l4-0.006z"></path>
</svg>
