<svg width="12" height="20" viewBox="0 0 12 20" fill="none" xmlns="http://www.w3.org/2000/svg">
<path d="M9.75 0C10.3467 0 10.919 0.237053 11.341 0.65901C11.7629 1.08097 12 1.65326 12 2.25V17.75C12 18.3467 11.7629 18.919 11.341 19.341C10.919 19.7629 10.3467 20 9.75 20H2.25C1.65326 20 1.08097 19.7629 0.65901 19.341C0.237053 18.919 0 18.3467 0 17.75V2.25C0 1.65326 0.237053 1.08097 0.65901 0.65901C1.08097 0.237053 1.65326 0 2.25 0H9.75ZM9.75 1.5H2.25C2.05109 1.5 1.86032 1.57902 1.71967 1.71967C1.57902 1.86032 1.5 2.05109 1.5 2.25V17.75C1.5 18.164 1.836 18.5 2.25 18.5H9.75C9.94891 18.5 10.1397 18.421 10.2803 18.2803C10.421 18.1397 10.5 17.9489 10.5 17.75V2.25C10.5 2.05109 10.421 1.86032 10.2803 1.71967C10.1397 1.57902 9.94891 1.5 9.75 1.5ZM7.249 15.5C7.44791 15.4997 7.63878 15.5785 7.77962 15.719C7.92046 15.8594 7.99973 16.0501 8 16.249C8.00027 16.4479 7.9215 16.6388 7.78104 16.7796C7.64057 16.9205 7.44991 16.9997 7.251 17L4.751 17.004C4.55209 17.0043 4.36122 16.9255 4.22038 16.785C4.07954 16.6446 4.00027 16.4539 4 16.255C3.99973 16.0561 4.0785 15.8652 4.21896 15.7244C4.35943 15.5835 4.55009 15.5043 4.749 15.504L7.249 15.5Z" fill="#F3C653"/>
</svg>
